<svg xmlns="http://www.w3.org/2000/svg" xmlns:xlink="http://www.w3.org/1999/xlink" xmlns:s="https://github.com/nturley/netlistsvg" width="465" height="119.5">
  <style>svg {
    stroke:#000;
    fill:none;
  }
  text {
    fill:#000;
    stroke:none;
    font-size:10px;
    font-weight: bold;
    font-family: "Courier New", monospace;
  }
  .nodelabel {
    text-anchor: middle;
  }
  .inputPortLabel {
    text-anchor: end;
  }
  .splitjoinBody {
    fill:#000;
  }</style>
  <g s:type="generic" transform="translate(144,22)" s:width="30" s:height="40" id="cell_hcsr04">
    <text x="15" y="-4" class="nodelabel cell_hcsr04" s:attribute="ref">sensor</text>
    <rect width="30" height="40" s:generic="body" class="cell_hcsr04"/>
    <g transform="translate(0,10)" s:x="0" s:y="10" s:pid="in0" id="port_hcsr04~clk">
      <text x="-3" y="-4" class="inputPortLabel cell_hcsr04">clk</text>
    </g>
    <g transform="translate(0,30)" s:x="0" s:y="10" s:pid="in0" id="port_hcsr04~echo_pin">
      <text x="-3" y="-4" class="inputPortLabel cell_hcsr04">echo_pin</text>
    </g>
    <g transform="translate(30,10)" s:x="30" s:y="10" s:pid="out0" id="port_hcsr04~echo_counter">
      <text x="5" y="-4" style="fill:#000; stroke:none" class="cell_hcsr04">echo_counter</text>
    </g>
    <g transform="translate(30,30)" s:x="30" s:y="10" s:pid="out0" id="port_hcsr04~trig_pin">
      <text x="5" y="-4" style="fill:#000; stroke:none" class="cell_hcsr04">trig_pin</text>
    </g>
  </g>
  <g s:type="generic" transform="translate(314,22)" s:width="30" s:height="40" id="cell_led">
    <text x="15" y="-4" class="nodelabel cell_led" s:attribute="ref">leds</text>
    <rect width="30" height="20" s:generic="body" class="cell_led"/>
    <g transform="translate(0,10)" s:x="0" s:y="10" s:pid="in0" id="port_led~value">
      <text x="-3" y="-4" class="inputPortLabel cell_led">value</text>
    </g>
    <g transform="translate(30,10)" s:x="30" s:y="10" s:pid="out0" id="port_led~leds">
      <text x="5" y="-4" style="fill:#000; stroke:none" class="cell_led">leds</text>
    </g>
  </g>
  <g s:type="inputExt" transform="translate(12,22.5)" s:width="30" s:height="20" id="cell_clk">
    <text x="15" y="-4" class="nodelabel cell_clk" s:attribute="ref">clk</text>
    <s:alias val="$_inputExt_"/>
    <path d="M0,0 L0,20 L15,20 L30,10 L15,0 Z" class="cell_clk"/>
    <g s:x="28" s:y="10" s:pid="Y"/>
  </g>
  <g s:type="inputExt" transform="translate(12,87.5)" s:width="30" s:height="20" id="cell_echo_pin">
    <text x="15" y="-4" class="nodelabel cell_echo_pin" s:attribute="ref">echo_pin</text>
    <s:alias val="$_inputExt_"/>
    <path d="M0,0 L0,20 L15,20 L30,10 L15,0 Z" class="cell_echo_pin"/>
    <g s:x="28" s:y="10" s:pid="Y"/>
  </g>
  <g s:type="outputExt" transform="translate(405,87.5)" s:width="30" s:height="20" id="cell_trig_pin">
    <text x="15" y="-4" class="nodelabel cell_trig_pin" s:attribute="ref">trig_pin</text>
    <s:alias val="$_outputExt_"/>
    <path d="M30,0 L30,20 L15,20 L0,10 L15,0 Z" class="cell_trig_pin"/>
    <g s:x="0" s:y="10" s:pid="A"/>
  </g>
  <g s:type="outputExt" transform="translate(405,22.5)" s:width="30" s:height="20" id="cell_leds">
    <text x="15" y="-4" class="nodelabel cell_leds" s:attribute="ref">leds</text>
    <s:alias val="$_outputExt_"/>
    <path d="M30,0 L30,20 L15,20 L0,10 L15,0 Z" class="cell_leds"/>
    <g s:x="0" s:y="10" s:pid="A"/>
  </g>
  <line x1="40" x2="144" y1="32.5" y2="32.5" class="net_2"/>
  <line x1="40" x2="70" y1="97.5" y2="97.5" class="net_3"/>
  <line x1="70" x2="70" y1="97.5" y2="52.5" class="net_3"/>
  <line x1="70" x2="144" y1="52.5" y2="52.5" class="net_3"/>
  <line x1="175" x2="314" y1="32.5" y2="32.5" class="net_8,9,10,11,12,13,14,15,16,17,18,19,20,21,22,23,24,25,26,27,28,29,30,31"/>
  <line x1="175" x2="258" y1="52.5" y2="52.5" class="net_4"/>
  <line x1="258" x2="258" y1="52.5" y2="97.5" class="net_4"/>
  <line x1="258" x2="405" y1="97.5" y2="97.5" class="net_4"/>
  <line x1="345" x2="405" y1="32.5" y2="32.5" class="net_5,6,7"/>
</svg>
